<svg xmlns="http://www.w3.org/2000/svg" version="1.1" xmlns:xlink="http://www.w3.org/1999/xlink"
    width="150" height="150" viewBox="0 0 1500 1500">
    <rect width="1500" height="1500" x="0" y="0" id="background" stroke="transparent" fill="#ffdf39"></rect>
    <svg xml:space="preserve" width="1000" height="1000" data-version="2"
        data-id="lg_VqBIMAlXCZdlQZNs7x" viewBox="0 0 396 379" x="250" y="250"><rect width="100%" height="100%" fill="transparent"></rect><path fill="#19673d" d="m275.237 353.258-1.118 1.878a8.788 8.788 0 0 1-8.03 4.594q-2.516 0-4.873-1.398L59.524 239.729l-6.192 10.586 201.732 118.642q5.033 2.797 11.026 2.797 12.223 0 18.615-10.386l1.158-1.918zM115.69 251.873q1.199-9.907 9.667-12.464l39.987-12.783-13.302-43.422a25.566 25.566 0 0 1 3.395-21.012 23.569 23.569 0 0 1 20.693-10.786q7.39 0 14.221 3.995l49.135 28.921a17.577 17.577 0 0 1 8.788 14.78l3.635 51.093 34.115 19.854a9.188 9.188 0 0 1 5.113 8.508q0 3.995-2.836 6.951-2.876 2.996-7.11 2.996-2.277 0-4.554-1.438L233.812 262.1q-5.392-3.116-6.55-10.785l-3.996-28.642-32.876-19.574 8.23 29.76q.239.56-.56 6.551-.879 5.992-8.789 8.789l-54.807 17.896q-3.156 1.118-4.793.799-15.58-1.638-13.942-15.02"></path><circle r="4.75" fill="#19673d" transform="translate(272.72 207.611)scale(3.9947)"></circle><circle r="4.7" fill="#19673d" transform="translate(23.012 88.809)scale(3.9947)"></circle><path fill="#19673d" d="M217.314 88.25a11.984 11.984 0 0 0-14.34-9.188l-44.981 9.707-13.183-25.566 22.37 6.631a11.585 11.585 0 0 0 13.703-5.952l21.89-43.822a11.613 11.613 0 1 0-20.772-10.386l-17.577 35.114-37.35-11.106a31.958 31.958 0 0 0-13.183-.639 39.947 39.947 0 0 0-14.54 6.272L56.208 70.314a22.37 22.37 0 0 0-8.07 16.258l-.04.72v1.637l-.199 70.307a11.385 11.385 0 0 0 11.345 11.425h.04a11.385 11.385 0 0 0 11.385-11.385l.12-43.503 18.215 12.224 12.863 30.68q2.637 4.434 6.712 5.512a9.987 9.987 0 0 0 7.83-1.118q3.754-2.237 4.833-6.312.719-2.716-.24-5.593l-14.38-34.833a7.99 7.99 0 0 0-2.557-3.596l-17.697-12.183 32.956-23.849 1.758-1.318 19.734 32.637a12.783 12.783 0 0 0 10.706 6.511q1.198 0 2.516-.28l54.049-11.664a11.984 11.984 0 0 0 9.187-14.341m129.07 85.806h-.16a7.99 7.99 0 0 1-5.793-2.597q-2.237-2.476-2.117-5.832a7.99 7.99 0 0 1 8.109-7.79c4.714.16 8.23 3.955 8.11 8.39a7.99 7.99 0 0 1-8.11 7.83m-3.316-27.484a8.11 8.11 0 1 1 0-16.219 8.11 8.11 0 0 1 0 16.219m-11.504-25.167a8.07 8.07 0 0 1-4.394-14.9c3.595-2.397 8.788-1.279 11.185 2.357a8.11 8.11 0 0 1-6.791 12.543m-18.216-20.892q-3.076 0-5.353-1.998c-1.598-1.398-2.637-3.355-2.756-5.512-.16-2.197.519-4.315 1.997-5.913a8.389 8.389 0 0 1 11.385-.799 8.11 8.11 0 0 1-5.313 14.222m-23.09-15.42q-1.917 0-3.635-.799a8.11 8.11 0 1 1 10.906-3.635 7.99 7.99 0 0 1-7.27 4.434m-26.086-9.348q-.879 0-1.837-.24a7.99 7.99 0 0 1-5.034-3.594 7.99 7.99 0 0 1-1.038-6.112 8.15 8.15 0 0 1 9.707-6.032 8.11 8.11 0 0 1-1.798 15.978m-27.563-3.115a8.11 8.11 0 1 1 0-16.219 8.11 8.11 0 0 1 0 16.219m128.709 156.552 13.902-13.902-6.791-6.79-13.942 13.9a21.97 21.97 0 0 1 6.83 6.792m2.837 6.83a21.97 21.97 0 0 1 0 9.668h19.654v-9.667zm-2.836 16.499a21.97 21.97 0 0 1-6.791 6.791l13.862 13.902 6.83-6.791zm-18.456 10.226q-2.516 0-4.793-.599v19.654h9.587V262.14a19.974 19.974 0 0 1-4.794.6m-18.455-10.227-13.942 13.902 6.831 6.79 13.902-13.901a21.97 21.97 0 0 1-6.791-6.791m-3.436-11.665q.04-2.476.56-4.793h-19.614v9.587h19.614a23.968 23.968 0 0 1-.56-4.794m10.227-18.455-13.902-13.902-6.79 6.791 13.9 13.902a21.571 21.571 0 0 1 6.792-6.791m11.664-3.436q2.437.04 4.794.56v-19.574h-9.587v19.654q2.277-.6 4.793-.6"></path></svg>
</svg>