<svg xmlns="http://www.w3.org/2000/svg" version="1.1" xmlns:xlink="http://www.w3.org/1999/xlink" width="50" height="50" viewBox="0 0 1500 1500">
  <rect width="1500" height="1500" x="0" y="0" id="background" stroke="transparent" fill="#ffdf39"></rect>
  <svg xml:space="preserve" width="1000" height="1000" data-version="2" data-id="lg_VqBIMAlXCZdlQZNs7x" viewBox="0 0 693 666" x="250" y="250">
    <rect width="100%" height="100%" fill="transparent"></rect>
    <path fill="#19673d" d="m481.81 619.882-1.959 3.29a15.396 15.396 0 0 1-14.066 8.047q-4.41 0-8.538-2.45l-353.34-207.776L93.06 439.54l353.41 207.846q8.817 4.899 19.315 4.899 21.414 0 32.611-18.195l2.03-3.36zM202.302 442.268q2.1-17.356 16.936-21.835l70.052-22.394-23.304-76.07a44.788 44.788 0 0 1 5.948-36.81 41.29 41.29 0 0 1 36.251-18.896q12.947 0 24.914 6.998l86.078 50.667a30.792 30.792 0 0 1 15.396 25.894l6.368 89.507 59.765 34.78a16.096 16.096 0 0 1 8.957 14.907q0 6.998-4.968 12.177-5.04 5.248-12.457 5.248-3.99 0-7.978-2.519l-75.02-43.739q-9.448-5.458-11.478-18.895l-6.998-50.177-57.595-34.291 14.416 52.136q.42.98-.98 11.477-1.54 10.498-15.396 15.397l-96.015 31.351q-5.529 1.96-8.398 1.4-27.293-2.87-24.424-26.313"></path>
    <circle r="4.75" fill="#19673d" transform="translate(477.401 364.728)scale(6.9982)"></circle>
    <circle r="4.7" fill="#19673d" transform="translate(39.944 156.602)scale(6.9982)"></circle>
    <path fill="#19673d" d="M380.337 155.622a20.995 20.995 0 0 0-25.124-16.096l-78.8 17.005-23.094-44.788 39.19 11.617a20.295 20.295 0 0 0 24.004-10.427l38.35-76.77a20.344 20.344 0 1 0-36.39-18.196L287.68 79.481l-65.433-19.455a55.986 55.986 0 0 0-23.094-1.12 69.982 69.982 0 0 0-25.473 10.988L98.1 124.2a39.19 39.19 0 0 0-14.137 28.482l-.07 1.26v2.87l-.35 123.168a19.945 19.945 0 0 0 19.875 20.014h.07a19.945 19.945 0 0 0 19.945-19.944l.21-76.21 31.911 21.414L178.09 279q4.618 7.768 11.757 9.657a17.496 17.496 0 0 0 13.716-1.96q6.578-3.918 8.468-11.056 1.26-4.76-.42-9.798l-25.194-61.024a13.996 13.996 0 0 0-4.478-6.298l-31.002-21.345 57.735-41.78 3.079-2.309 34.571 57.176a22.394 22.394 0 0 0 18.755 11.407q2.1 0 4.41-.49l94.685-20.435a20.995 20.995 0 0 0 16.096-25.123m226.111 150.32h-.28a13.996 13.996 0 0 1-10.147-4.548q-3.919-4.339-3.709-10.217a13.996 13.996 0 0 1 14.206-13.647c8.258.28 14.417 6.928 14.207 14.696a13.996 13.996 0 0 1-14.207 13.717m-5.808-48.148a14.206 14.206 0 1 1 0-28.412 14.206 14.206 0 0 1 0 28.412m-20.155-44.088a14.136 14.136 0 0 1-7.698-26.104c6.298-4.199 15.396-2.24 19.595 4.13a14.206 14.206 0 0 1-11.897 21.974m-31.912-36.6q-5.388 0-9.377-3.5c-2.8-2.45-4.62-5.879-4.83-9.658-.279-3.849.91-7.558 3.5-10.357a14.696 14.696 0 0 1 19.945-1.4 14.206 14.206 0 0 1-9.308 24.914m-40.45-27.013q-3.358 0-6.368-1.4a14.206 14.206 0 1 1 19.105-6.368 13.996 13.996 0 0 1-12.736 7.768m-45.699-16.376q-1.54 0-3.219-.42A13.996 13.996 0 0 1 450.32 127a13.996 13.996 0 0 1-1.82-10.707 14.276 14.276 0 0 1 17.006-10.568 14.206 14.206 0 0 1-3.15 27.993m-48.287-5.458a14.206 14.206 0 1 1 0-28.413 14.206 14.206 0 0 1 0 28.413m225.482 274.26 24.354-24.355-11.897-11.897-24.424 24.354a38.49 38.49 0 0 1 11.967 11.897m4.969 11.967a38.49 38.49 0 0 1 0 16.936h34.43v-16.936zm-4.97 28.903a38.49 38.49 0 0 1-11.896 11.897l24.284 24.353 11.967-11.897zm-32.33 17.915q-4.41 0-8.399-1.05v34.431h16.796v-34.43a34.991 34.991 0 0 1-8.398 1.049m-32.331-17.915-24.424 24.353 11.967 11.897 24.353-24.353a38.49 38.49 0 0 1-11.896-11.897m-6.019-20.435q.07-4.34.98-8.398h-34.361v16.796h34.36a41.99 41.99 0 0 1-.979-8.398m17.915-32.332-24.353-24.354-11.897 11.897 24.354 24.354a37.79 37.79 0 0 1 11.896-11.897m20.435-6.018q4.27.07 8.398.98V351.29H598.82v34.431q3.99-1.05 8.398-1.05"></path>
  </svg>
</svg>
